# xmcd CD database file generated by Grip 2.95
# 
# Track frame offsets:
#       150
#       23707
#       39079
#       59956
#       77003
#       96632
#       113846
#       137199
#       155618
#       179047
#       203424
#       222819
#       241410
#       259849
#       281913
#       301942
# 
# Disc length: 4298 seconds
# 
# Revision: 3
# Processed by: cddbd v1.4PL0 Copyright (c) Steve Scherf et al.
# Submitted via: Grip 2.95
# 
DISCID=eb10c810
DTITLE=Chi - Salsamante oefen-cd 1
DYEAR=1900
DGENRE=
TTITLE0=Son Apretao - Joe Arroyo Y la Verdad
TTITLE1=Rosalia - Juan Luis Guerra
TTITLE2=Como tu - E.R.A.
TTITLE3=Mi buen amor - Gloria Estefan
TTITLE4=Si dios me quita la vida - Son Bakan
TTITLE5=Guantanamera - Fruko Y Orquesta
TTITLE6=Cuanto me des tu amor - E.R.A.
TTITLE7=Nuest Amor - Ramon Rodriguez
TTITLE8=Un hombre busca una mujer - Son Bakan
TTITLE9=Drenta sali - E.R.A.
TTITLE10=Los Sabrosos del Merengue - La Macolina
TTITLE11=Frio Frio - Juan Luis Guerra
TTITLE12=Como abeja al panal - Juan Luis Guerra
TTITLE13=Mi Media Mitad - Gustavo Marquez
TTITLE14=Yamulemau - Joe Arroyo Y la Verdad
TTITLE15=Nada sin ti - Jerry Rivera
EXTD=
EXTT0=
EXTT1=
EXTT2=
EXTT3=
EXTT4=
EXTT5=
EXTT6=
EXTT7=
EXTT8=
EXTT9=
EXTT10=
EXTT11=
EXTT12=
EXTT13=
EXTT14=
EXTT15=
PLAYORDER=
